<svg width="129" height="129" viewBox="0 0 129 129" fill="none" xmlns="http://www.w3.org/2000/svg">
<g clip-path="url(#clip0_112_97)">
<path d="M49.5 62.5001C43.9 62.5001 29.5 46.5001 23 38.5001L22 50.5L17.5 59L14.5 78.5L20 96L53 105L67 108L82.5 113C82.8333 113.833 84.5 115.9 88.5 117.5C92.5 119.1 99.5 114.5 102.5 112C102.5 113.167 104.3 111.8 111.5 97C118.7 82.2 115.5 72.5 113 69.5L108.5 68L102.5 69.5L106 50.5V32L99.5 22.5C95.8333 19.6667 86.8 13.5001 80 11.5001C73.2 9.50006 63.1667 10.6667 59 11.5001L64 18.5001L60 27.0001C58.8333 38.8334 55.1 62.5001 49.5 62.5001Z" fill="white"/>
<path d="M91.5612 108.891C88.1881 108.224 81.5375 111.774 68.9597 106.495C67.9589 105.296 67.4295 103.774 67.4704 102.213C71.5835 104.079 75.4725 102.54 79.3661 102.568C80.804 102.568 82.4287 102.376 83.4185 100.94L84.0674 100.902C88.1058 101.014 95.3702 96.4008 96.2479 92.9301C93.386 96.662 89.4504 98.6539 85.1365 100.025C83.3438 99.2183 86.8312 99.6516 85.1365 100.225C81.4016 99.9455 72.4285 100.413 68.7543 99.3256C64.7813 98.1501 60.7896 97.0445 56.8073 95.911C55.444 93.4759 54.6737 91.0502 57.078 88.4752C61.6253 88.9697 66.2566 89.5155 70.9159 89.0257C77.2139 88.3633 82.4054 86.6093 83.7593 84.4821C80.9581 85.2518 78.5257 86.6326 75.6265 86.9778C75.5612 84.1276 75.3651 81.4966 75.8273 78.9076C80.3885 78.6651 82.326 75.7495 80.8787 71.5838C80.5566 70.9494 80.5566 69.9745 79.4175 70.1844L78.8479 69.6106C77.662 67.5861 75.7432 69.2001 73.9225 68.5703C73.2969 68.4211 74.0579 66.7371 72.704 66.8024L72.7413 66.8397C73.1475 64.8338 71.4154 63.7142 70.407 62.8279C67.6712 60.4489 64.193 60.029 60.6029 60.962C59.7065 55.4761 61.658 50.1722 60.5235 44.887C57.8732 44.4577 55.2636 43.807 52.7222 42.9417C52.6395 42.0117 52.7573 41.0748 53.0677 40.1941C54.3299 36.4477 55.9659 32.8376 57.9511 29.4183C59.8932 26.0037 59.7065 22.9855 57.4422 20.4385C57.0921 20.042 56.4478 19.8508 56.7652 19.0997C58.9362 17.9055 60.967 19.2257 63.3947 19.7575C63.0758 18.2698 62.4316 16.8711 61.5082 15.6614C60.5849 14.4517 59.4052 13.461 58.0538 12.7602C59.2443 11.7153 60.1313 11.4027 61.1398 12.387C62.7971 12.513 64.4638 12.5689 66.1072 12.7835C73.9942 13.7949 81.7547 15.6225 89.2636 18.2367C92.2515 19.2863 94.7119 21.3715 97.8166 22.0432C99.8416 22.869 99.8416 23.0869 100.823 24.7675C101.832 25.6631 102.821 26.5728 103.298 27.9582C91.0004 29.549 78.7358 29.8942 66.5787 31.7181C65.8644 36.7002 64.4358 41.4256 64.1417 46.6456C70.5424 47.2287 76.4062 45.1202 82.4147 45.1015C82.3867 46.0345 81.4203 46.5476 81.6164 47.4759H81.6677C78.8245 49.7244 78.5584 53.5402 81.0702 55.896L81.5744 56.2645C81.5464 57.3374 82.4147 57.5706 83.1384 57.9718C86.5371 59.8611 90.2954 60.1783 94.049 60.5235C97.8026 60.8687 101.463 60.2483 105.254 59.0401C104.787 62.4128 104.371 65.3703 104.012 67.9546C101.341 69.7599 98.1994 70.1984 96.4253 73.6224C99.7634 71.929 101.976 69.4847 105.193 68.9808C105.47 69.2067 105.777 69.3949 106.103 69.5406C110.851 70.9401 112.966 73.6644 112.99 78.6091C112.99 82.8448 112.966 87.0804 112.957 91.3161C112.826 92.0112 112.649 92.7156 112.934 93.406L112.962 93.3453C111.995 93.9144 112.084 94.7448 112.383 95.6451L112.406 95.5844C110.772 97.6603 110.072 100.105 109.605 102.642L109.642 102.605C106.911 105.665 105.352 109.691 101.832 112.107C100.903 112.067 99.9778 112.255 99.1378 112.653C94.3916 115.079 88.9027 115.62 83.7733 114.169C83.5475 113.998 83.3988 113.744 83.3594 113.464C83.32 113.183 83.3933 112.898 83.5632 112.672C83.8213 112.632 84.0769 112.577 84.3289 112.508C87.3401 111.51 90.6969 111.188 92.7091 108.231L93.3347 108.072C96.0938 107.634 100.165 104.014 100.31 101.737C98.2519 104 95.9378 106.017 93.414 107.746C93.3785 107.659 93.325 107.582 93.257 107.517C93.1891 107.453 93.1082 107.405 93.0199 107.374C92.9316 107.344 92.8378 107.332 92.7448 107.341C93.3347 108.072 92.7903 108.185 92.7091 108.231L92.3122 108.301L93.0199 108.615C88.7248 109.049 96.2345 109.66 91.888 108.942L91.5612 108.891ZM92.8631 77.4615L85.0058 83.7917C88.5867 82.8168 91.2805 80.7969 92.8351 77.4382C93.3536 77.2622 93.7826 76.8905 94.0303 76.4026C94.5388 76.3391 95.0123 76.11 95.3777 75.7509C95.743 75.3917 95.9799 74.9224 96.0518 74.4154H85.454C87.4942 75.6656 89.5904 75.0825 91.64 75.2411C92.3776 75.3017 93.6288 74.4667 93.7782 76.1087C93.4972 76.2011 93.255 76.3841 93.0894 76.6289C92.9237 76.8738 92.8442 77.1666 92.8631 77.4615ZM85.2673 70.8001C89.4317 72.0083 95.5383 71.4859 97.6111 69.8299C93.5447 70.7628 89.3757 70.1331 85.2673 70.8001ZM85.1645 66.8444C89.497 68.1085 95.3142 67.6514 97.5458 66.1726L85.1645 66.8444Z" fill="#90C2E9"/>
<path d="M60.9455 11.6468C59.9371 10.6625 59.249 11.7059 58.0585 12.7508C59.41 13.4516 60.5896 14.4423 61.513 15.652C62.4363 16.8617 63.0805 18.2604 63.3995 19.748C60.9624 19.2162 58.9409 17.8821 56.77 19.0903C56.4525 19.8413 57.0968 20.0233 57.4469 20.4291C59.7112 22.9761 59.898 25.9943 57.9558 29.4089C55.9707 32.8282 54.3346 36.4383 53.0724 40.1847C52.762 41.0653 52.6442 42.0023 52.727 42.9323C55.2684 43.7976 57.8779 44.4483 60.5282 44.8775C61.6627 50.1628 59.7112 55.4667 60.6076 60.9526C64.1931 60.0196 67.6713 60.4348 70.4118 62.8185C71.4249 63.7048 73.325 63.6115 72.9141 65.6174C71.803 64.2506 69.8609 61.2231 68.4603 61.503C63.7263 58.7461 59.207 61.0552 56.2891 65.9626C53.2312 71.1219 55.4254 76.0247 59.982 78.609C63.7169 80.7268 67.2184 79.6259 70.5378 77.4288C70.5705 81.2819 67.5499 84.3794 67.5546 88.3258L70.944 87.8594C71.8777 86.4179 71.8077 84.594 73.2783 83.563C73.8339 84.8505 72.0038 85.8442 72.9141 87.2949C73.2132 87.4351 73.5481 87.4803 73.8737 87.4244C74.1992 87.3685 74.4998 87.2142 74.7349 86.9824V82.4248L73.2456 83.6097C72.9328 81.6831 74.3894 80.2417 74.6976 78.3804L72.5313 76.7617L70.5051 77.4521C72.4613 75.2596 72.4964 72.0456 73.8737 69.6991V67.3216C75.2276 67.2563 73.3016 68.3837 73.9272 68.5329C75.748 69.1627 77.6621 67.5486 78.8526 69.5732H78.876C77.9423 70.0816 76.9805 69.0367 76.0748 69.6991C73.423 70.9493 72.2092 72.9272 73.0402 74.9471C73.7732 76.7337 74.9403 78.1472 77.1719 77.8953C79.3055 77.6527 80.3419 76.0573 80.44 72.9645C80.44 72.6007 80.4727 72.2321 80.4913 71.8636C80.6221 71.7657 80.7528 71.6677 80.8742 71.5604C82.3214 75.7261 80.384 78.6416 75.8227 78.8842C75.3558 81.4732 75.5566 84.1042 75.622 86.9544C78.5212 86.6092 80.9535 85.2284 83.7547 84.4587C82.4008 86.5859 77.2186 88.3398 70.9113 89.0023C66.2427 89.4921 61.6207 88.9463 57.0735 88.4518C54.6691 91.0268 55.4394 93.4525 56.8027 95.8875L58.3153 98.22C59.968 99.3862 61.9148 98.7518 62.9373 100.333C61.7748 100.926 61.476 102.073 60.9484 103.132C60.3042 104.429 60.1968 106.304 58.1799 106.514C59.0249 104.378 60.7663 102.605 60.8597 100.151C56.4012 98.957 54.0669 95.2951 54.7111 90.7469C54.9446 89.0629 55.6449 88.2372 57.4703 87.948C60.3555 87.4815 63.0727 88.7224 66.0046 88.3725C66.9663 85.5176 68.6844 82.8866 69.3053 79.5093C66.1119 80.4749 62.9139 81.4405 60.3182 79.8358C57.3442 77.9979 54.3703 78.483 51.3217 78.4084C49.655 78.3664 48.6139 79.1548 47.9649 80.7408C44.8556 88.3585 41.6623 95.9435 38.5063 103.543C38.0768 104.578 36.9843 105.553 37.8527 106.505H58.2313C55.3974 107.904 52.3208 107.494 49.3609 107.545C45.1591 107.615 40.906 108.095 36.0319 107.391C39.6268 97.2264 44.02 87.7987 47.979 78.3758C50.6588 76.7057 53.5813 77.9979 56.2331 77.1722C56.079 75.7728 54.8325 75.1617 54.5757 74.1028C52.4095 74.1028 50.472 74.1634 48.5392 74.1028C47.0312 74.0468 45.9061 74.7278 45.4206 75.9687C43.4177 81.1653 40.1216 85.8861 39.6735 91.6566C39.5194 93.6531 38.9452 95.4677 36.9563 96.452V96.4847C38.4324 93.7394 38.9965 90.5962 38.567 87.5095C40.4344 85.9374 41.0133 83.717 41.5456 81.4779C42.2879 81.0347 42.4793 80.4003 42.1525 79.346C39.2066 78.0679 36.0833 76.7617 33.3568 74.7185C29.5659 71.8496 25.5835 69.1207 24.1736 64.162C29.1223 70.5155 34.7807 75.908 43.0162 78.2964C44.3374 75.1617 45.9855 72.6753 49.7811 72.9552C49.7811 70.3476 49.9351 67.9498 49.1228 65.6174C49.7951 64.8151 48.9874 63.8867 49.4216 63.0191C48.4156 62.7756 47.4974 62.2571 46.7698 61.5217L47.1199 61.0785L48.6279 61.503C48.6857 61.572 48.7568 61.6287 48.837 61.6695C48.9173 61.7104 49.005 61.7346 49.0948 61.7407C49.1847 61.7468 49.2748 61.7347 49.3599 61.705C49.4449 61.6754 49.5231 61.6289 49.5896 61.5683C49.6699 61.4109 49.6905 61.2297 49.6476 61.0582C49.6047 60.8867 49.5012 60.7366 49.3562 60.6354C49.8464 54.5151 49.9304 48.3575 51.4711 42.3539C52.4794 38.2336 54.0437 34.2695 56.1211 30.5705C59.2724 25.0893 59.0716 23.2093 54.3516 19.011C56.2751 17.0751 58.7822 17.8308 61.2005 17.4949C59.9633 14.1875 56.742 13.9916 53.9595 12.7414C56.3265 10.7869 59.0016 10.521 61.4293 10.2971C76.6257 8.89761 90.3375 12.3076 101.482 23.4099C102.076 24.0021 102.578 24.6798 102.971 25.4205C103.928 27.2864 105.24 28.3267 107.593 27.5103C109.927 31.549 111.603 35.9326 112.56 40.4972C111.444 42.8763 108.699 41.4582 107.728 43.4501C107.808 45.316 107.892 47.2146 107.976 49.1225C106.948 49.1225 106.482 48.1896 105.683 47.7884L104.843 47.2006L104.88 47.2239C104.569 46.4807 104.269 45.739 103.979 44.9988C104.983 44.9242 105.571 45.9318 106.51 46.0624C106.874 45.0019 106.86 43.8478 106.468 42.797H102.425C102.957 43.7626 103.979 44.0892 104.007 45.0361C102.989 45.302 102.359 44.6723 101.552 44.1871C96.4487 41.141 88.2693 41.7661 84.525 45.3673C83.4746 45.9691 82.919 47.2333 81.6071 47.5038C81.4111 46.5709 82.3775 46.0437 82.4055 45.1294C76.3969 45.1294 70.5331 47.2566 64.1324 46.6735C64.4266 41.4349 65.8552 36.7094 66.5695 31.746C78.7079 29.9221 90.9911 29.5769 103.288 27.9861C102.821 26.5867 101.822 25.691 100.814 24.7954C100.291 23.3026 99.1052 22.4396 97.826 21.6699C94.5372 18.2724 90.3715 15.8506 85.7902 14.6727L84.9826 14.3415C83.8574 13.5018 82.4568 13.4552 81.1823 13.054C75.8087 11.37 70.3137 10.465 64.674 11.0294C63.4461 11.1507 61.6505 9.99544 60.9455 11.6468ZM97.8587 34.3163C99.3106 34.3443 100.739 33.9198 102.177 34.4376L104.437 38.1695C104.301 33.7006 101.939 32.4924 97.8587 34.3163C96.3227 35.2913 95.2442 36.4855 95.7764 38.4634C95.6177 36.7047 94.6289 34.2541 97.8587 34.3163ZM54.1649 72.8479C53.7307 67.9545 54.9492 64.1153 59.137 61.7689C59.4311 56.5443 59.7206 51.4223 60.024 46.0297C57.3162 45.4746 54.8559 44.2944 52.1807 44.3737C50.3973 50.4054 49.9304 65.5661 51.2097 72.8292L54.1649 72.8479ZM67.6619 32.7303C66.3371 37.1304 65.5348 41.6709 65.2716 46.2583L68.7124 45.442C69.1792 43.1889 69.8842 41.0664 70.0569 38.9112C70.2297 36.756 71.2381 34.6895 70.9113 32.3291L67.6619 32.7303ZM86.4018 39.5549C85.8042 36.1123 83.4326 34.5869 80.3046 35.3286C77.7929 35.9257 76.4109 37.9969 76.9712 40.7911C77.3587 38.3328 78.031 36.3595 80.524 35.9583C83.4466 35.4872 85.1226 37.1805 86.4018 39.5549Z" fill="#484848"/>
<path d="M41.5597 81.4873C41.0275 83.7264 40.4626 85.9469 38.5811 87.5189L38.6185 87.5469C38.371 85.8443 37.8948 84.3329 35.8173 84.1696L35.8546 84.1929C35.2244 82.3037 33.4596 82.327 32.017 82.1917C28.0767 81.8232 25.2335 83.7358 23.394 87.0478C21.9608 86.7213 21.4799 85.2145 20.126 85.1819L19.4817 84.5288C19.6124 83.204 19.2623 82.145 17.9084 81.6366L17.9644 81.6599C18.0697 81.0866 18.0282 80.496 17.8437 79.943C17.6592 79.3901 17.3378 78.8927 16.9093 78.4971C15.5903 74.1005 15.0298 69.5117 15.2519 64.9271C15.3266 63.6303 16.3537 62.3288 15.2286 61.0366C15.2415 60.8758 15.2809 60.7182 15.3453 60.5702C16.6992 60.6215 16.279 59.6372 16.279 58.9235L16.251 59.0261C17.6236 58.1258 16.9186 55.6254 19.1222 55.3315L19.1643 56.1152C19.0429 57.4074 19.0569 58.6482 20.252 59.5159C20.2194 59.9824 20.252 60.4489 20.8029 60.6355C20.5929 62.786 21.4332 64.7079 22.5677 66.3639C25.2101 70.2124 27.7359 74.1868 31.6855 76.9344C34.7108 79.0149 37.7267 81.1514 41.5597 81.4873Z" fill="#90C2E9"/>
<path d="M15.2191 61.0552C16.3443 62.3473 15.3172 63.6488 15.2425 64.9457C15.0204 69.5302 15.5808 74.119 16.8998 78.5157L16.5357 78.7909C15.9941 77.3261 15.4526 75.866 14.8596 74.2567C14.6075 74.7651 14.4208 75.157 14.22 75.5442C14.0591 75.7661 13.9303 76.0095 13.8372 76.2672C12.2125 85.7135 12.5393 94.9266 18.6786 102.824C21.4097 106.337 25.0186 109.355 30.2661 108.095L31.5127 104.919C31.5453 103.986 30.7657 103.729 30.5416 103.127C31.9982 102.889 33.4922 103.724 34.9254 102.955C37.1103 100.319 37.101 100.03 34.6033 96.9698C33.2634 97.0444 31.7694 96.7272 30.5042 97.8001L30.0374 97.4129C30.1588 96.5453 31.0411 96.508 31.5267 96.0135C33.3941 95.5843 35.1495 96.34 36.961 96.48V96.4473C37.3158 98.7004 38.0114 100.972 36.34 103.393C34.3325 104.326 31.2699 104.718 31.5827 108.585C32.423 110.67 34.4912 111.118 36.6622 111.16C44.893 111.323 53.1331 111.529 61.0698 109.686C63.3668 108.039 63.7356 105.264 65.3323 103.272C64.9167 106.393 64.1277 109.294 61.4013 110.736C51.4384 112.135 41.8257 113.185 31.9889 111.449C31.8255 113.497 32.5911 115.587 33.03 117.724L32.9366 117.808C30.2755 115.634 31.4986 112.331 30.4249 109.551H28.4267L27.493 109.695C20.1585 108.035 13.7392 100.067 12.8801 92.7108C12.2078 86.9684 11.0734 81.114 13.375 75.6328C14.967 71.8263 13.8745 68.0198 14.6075 64.2832C14.8503 63.2243 14.7943 62.0954 15.2191 61.0552Z" fill="#484848"/>
<path d="M115.531 73.205C116.24 77.9491 115.908 85.7041 113.905 89.6879C114.414 85.4149 114.806 81.8137 115.305 78.2217C115.49 76.8521 115.398 75.4594 115.034 74.126C113.802 69.4845 109.899 67.4693 105.23 68.9947C102.014 69.4985 99.8007 71.9429 96.4627 73.6362C98.2368 70.2122 101.379 69.7737 104.049 67.9684C104.409 65.3841 104.824 62.4266 105.291 59.0539C101.491 60.2621 97.8212 60.8779 94.0863 60.5373C90.3514 60.1968 86.5745 59.8749 83.1757 57.9857C82.4521 57.5845 81.5837 57.3512 81.6117 56.2783C82.1396 56.4261 82.6586 56.6037 83.1664 56.8101C90.6642 60.3881 98.2461 60.7519 105.931 57.4212L106.43 58.0323C106.528 61.0271 105.618 63.9147 105.403 67.264C108.041 67.376 110.421 67.6603 112.807 68.7379L113.788 69.6095L115.531 73.205Z" fill="#484848"/>
<path d="M92.7137 108.245C90.7016 111.202 87.3448 111.51 84.3335 112.522C84.0816 112.591 83.8259 112.645 83.5679 112.686C83.398 112.912 83.3247 113.197 83.3641 113.478C83.4034 113.758 83.5522 114.012 83.778 114.183C84.7117 117.341 87.3215 117.257 89.7725 117.084C92.8631 116.87 95.8791 116.194 98.5775 114.523L99.1565 115.121C96.0892 117.192 92.5924 117.878 88.9975 118.064C86.131 118.213 83.7686 117.131 82.4614 114.388C82.1384 113.577 81.6262 112.854 80.9675 112.28C77.578 112.037 74.1979 111.295 71.1633 109.383C73.0308 109.453 74.7115 110.512 76.607 110.46C77.4893 111.123 78.487 111.721 79.4674 111.665C80.2331 111.595 81.369 112.396 82.2046 111.883C82.2046 112.393 82.5181 111.665 82.2046 111.347C86.0749 111.953 89.329 110.502 92.3403 108.268V108.315L92.7137 108.245Z" fill="#484848"/>
<path d="M19.1596 56.0917L19.1175 55.308C16.9139 55.6019 17.6189 58.1069 16.2463 59.0026C15.9102 56.8614 17.2594 55.4013 18.4779 53.6613C17.5769 48.53 18.1465 43.422 20.8963 38.6079C22.8244 37.2784 24.3744 38.0481 25.2148 39.984C26.1765 42.1905 28.2821 43.7159 28.777 46.1416H28.0066C25.7984 44.0798 25.2054 40.9077 23.0065 38.8411C22.1988 38.9251 21.7226 39.4336 21.2745 40.068C19.9112 41.9992 19.4957 44.2197 19.0335 46.4775C18.3005 50.0508 19.6965 53.3535 20.0793 56.7821L19.1596 56.0917Z" fill="#484848"/>
<path d="M83.4185 100.94C82.4287 102.376 80.804 102.577 79.3661 102.568C75.4725 102.54 71.5835 104.074 67.4704 102.213C67.4295 103.774 67.9589 105.296 68.9597 106.495L70.3977 108.399C67.8066 110.941 68.1754 115.191 64.9914 117.262L64.4358 116.735C66.3735 114.283 67.792 111.462 68.6049 108.445C67.3023 105.814 66.0978 103.365 64.87 100.921C65.3368 100.888 65.8457 100.697 66.2239 100.851C70.5657 102.628 74.9776 102.11 79.4081 101.359C79.4729 101.38 79.5415 101.387 79.6092 101.379C79.6768 101.371 79.7419 101.348 79.7997 101.312C79.8576 101.276 79.9713 101.786 80.0121 101.533C80.0803 101.722 80.4384 101.379 80.448 101.312L83.4185 100.94Z" fill="#484848"/>
<path d="M63.8709 117.84C63.2484 118.502 62.4494 118.971 61.5684 119.194C60.6874 119.416 59.7611 119.382 58.8988 119.095C56.2844 118.339 53.5719 118.652 50.9902 119.128C46.3589 119.991 41.7229 119.86 37.0776 119.767C35.4763 119.739 33.6742 119.823 32.9319 117.822L33.0253 117.738C34.3698 117.677 35.2709 118.927 36.6761 118.866C40.8125 118.685 44.9443 119.006 49.0994 118.4C52.246 117.934 55.4767 117.117 58.6747 117.845C60.286 118.223 61.978 118.044 63.4741 117.336L63.8709 117.84Z" fill="#484848"/>
<path d="M105.478 110.419C104.362 111.505 103.47 112.868 101.855 113.32L101.468 112.952L101.836 112.121C105.357 109.705 106.916 105.679 109.647 102.619C109.502 105.884 106.977 107.876 105.478 110.419Z" fill="#484848"/>
<path d="M112.425 95.5984C112.7 96.5314 112.275 97.3384 112.005 98.1734C111.104 99.6102 111.309 101.644 109.614 102.656C110.09 100.119 110.786 97.6742 112.425 95.5984Z" fill="#484848"/>
<path d="M107.962 49.0806C110.674 51.5576 111.057 53.4095 109.236 55.2335L109.054 55.0656C109.806 53.1996 109.054 51.7582 107.864 50.4007L107.962 49.0806Z" fill="#484848"/>
<path d="M108.48 56.4277C108.291 56.845 108.002 57.2096 107.639 57.4894C107.276 57.7692 106.85 57.9556 106.398 58.0324L105.889 57.4213L107.756 55.9939L108.48 56.4277Z" fill="#484848"/>
<path d="M16.2836 58.9468C16.2836 59.6652 16.6898 60.6448 15.3499 60.5935C15.5413 59.9824 15.3825 59.1567 16.2836 58.9468Z" fill="#484848"/>
<path d="M100.637 114.183C100.493 114.454 100.281 114.683 100.021 114.847C99.7615 115.011 99.4633 115.104 99.1565 115.116L98.5776 114.538C98.7149 114.276 98.9262 114.06 99.1852 113.918C99.4442 113.775 99.7395 113.712 100.034 113.735L100.637 114.183Z" fill="#484848"/>
<path d="M101.855 113.32L101.206 114.02L100.636 114.183L100.034 113.716C100.282 113.031 101.052 113.32 101.467 112.947L101.855 113.32Z" fill="#484848"/>
<path d="M64.9914 117.257C64.8094 117.817 64.3098 117.761 63.8803 117.84L63.4741 117.327L64.4359 116.73L64.9914 117.257Z" fill="#484848"/>
<path d="M108.727 55.8679L108.48 56.4277L107.756 55.9939L108.428 55.5647C108.531 55.6673 108.629 55.7606 108.727 55.8679Z" fill="#484848"/>
<path d="M109.236 55.2336L108.727 55.868C108.629 55.7701 108.531 55.6674 108.438 55.5648L109.054 55.0657L109.236 55.2336Z" fill="#484848"/>
<path d="M109.054 55.0655L108.438 55.5646L107.765 55.9938L105.898 57.4212C98.2134 60.7519 90.6315 60.3881 83.1337 56.8102C82.626 56.6037 82.1069 56.4261 81.579 56.2784L81.0748 55.9098C80.1411 53.5774 79.5575 51.3103 81.3083 49.0572C81.6071 48.6747 81.5604 48.0169 81.6724 47.4898H81.6211C82.9329 47.2426 83.4885 45.9551 84.539 45.3533C85.6921 45.6565 86.6072 44.7562 87.6903 44.7329C88.2459 45.6658 86.7566 45.9737 87.0787 46.8461C87.835 46.8227 88.1291 46.235 88.4793 45.8105L87.681 44.7515C92.2049 42.9602 95.4835 43.1341 106.597 47.928C107.96 48.4271 105.123 48.3559 106.757 48.1506L106.597 47.7101C106.919 48.8483 107.845 49.5623 107.845 50.396C109.031 51.7581 109.806 53.2182 109.054 55.0655ZM83.736 53.027C83.031 52.3926 83.848 51.3709 82.8723 50.9791C81.8778 53.0969 83.3391 53.9133 84.7397 54.515C90.5755 57.0154 96.6867 57.1973 102.849 56.3017C103.618 56.2001 104.359 55.9474 105.03 55.5583C105.701 55.1692 106.288 54.6514 106.757 54.0346C98.6616 56.8148 91.1451 56.6422 83.736 53.027Z" fill="#D48EBD"/>
<path d="M85.1365 100.025C89.4503 98.6539 93.386 96.6574 96.2478 92.9302C95.3701 96.4008 88.1058 101.014 84.0674 100.902L85.1365 100.025Z" fill="#484848"/>
<path d="M85.2673 70.8001C89.3757 70.133 93.5448 70.7628 97.6112 69.8298C95.529 71.4858 89.4318 72.0083 85.2673 70.8001Z" fill="#484848"/>
<path d="M93.7783 76.1086C93.6289 74.4666 92.3777 75.3016 91.64 75.241C89.5905 75.0824 87.4943 75.6655 85.4541 74.4153H96.0519C95.98 74.9223 95.7431 75.3916 95.3778 75.7508C95.0124 76.1099 94.5389 76.339 94.0304 76.4025L93.7783 76.1086Z" fill="#484848"/>
<path d="M85.1646 66.8443L97.5458 66.1726C95.3142 67.6514 89.497 68.1085 85.1646 66.8443Z" fill="#484848"/>
<path d="M92.8166 77.438C91.262 80.7967 88.5682 82.8165 84.9873 83.7915L92.8446 77.4613L92.8166 77.438Z" fill="#484848"/>
<path d="M93.4187 107.76C95.9425 106.031 98.2566 104.014 100.314 101.751C100.17 104.028 96.1125 107.648 93.3394 108.086C93.3865 107.983 93.4135 107.872 93.4187 107.76V107.76Z" fill="#484848"/>
<path d="M81.6725 47.4897C81.5605 48.0169 81.6072 48.6746 81.3084 49.0571C79.5576 51.3103 80.1412 53.5914 81.0749 55.9098C78.5632 53.5354 78.8107 49.7382 81.6725 47.4897Z" fill="#484848"/>
<path d="M79.4221 70.1936C80.5613 69.9744 80.5613 70.9493 80.8834 71.593C80.762 71.7003 80.6313 71.7983 80.5006 71.8962C80.1504 71.3225 79.7956 70.7487 79.4408 70.1749L79.4221 70.1936Z" fill="#484848"/>
<path d="M112.976 93.3591C113.13 94.2128 113.265 95.0665 112.397 95.6589C112.098 94.7679 112.009 93.9282 112.976 93.3591Z" fill="#484848"/>
<path d="M113.685 91.5772C113.713 92.3003 113.769 93.0373 112.948 93.4432C112.663 92.7434 112.84 92.0437 112.971 91.3533C113.09 91.329 113.21 91.3119 113.33 91.302L113.685 91.5772Z" fill="#484848"/>
<path d="M92.8631 77.4614C92.8453 77.1642 92.9276 76.8695 93.0968 76.6244C93.266 76.3792 93.5124 76.1977 93.7968 76.1086L94.0489 76.4025C93.8012 76.8904 93.3722 77.2621 92.8538 77.4381L92.8631 77.4614Z" fill="#484848"/>
<path d="M78.8525 69.6198L79.4221 70.1935V70.1655L78.8572 69.5964L78.8525 69.6198Z" fill="#484848"/>
<path d="M62.9373 100.361H62.8999C63.4228 101.098 64.1464 101.122 64.9261 100.935L64.8794 100.907C66.0886 103.351 67.2931 105.8 68.6143 108.431C67.8014 111.448 66.383 114.269 64.4452 116.721L63.4742 117.337C61.983 118.048 60.2946 118.234 58.6842 117.864C55.4861 117.136 52.2554 117.962 49.1088 118.419C44.9537 119.016 40.8219 118.694 36.6855 118.885C35.2849 118.946 34.3792 117.696 33.0347 117.756C32.5958 115.62 31.8302 113.53 31.9936 111.482C41.7977 113.217 51.4244 112.187 61.406 110.768C64.1324 109.327 64.9214 106.425 65.337 103.305C63.7403 105.297 63.3715 108.072 61.0745 109.719C53.1378 111.561 44.8977 111.356 36.6669 111.193C34.4959 111.151 32.4277 110.703 31.5874 108.618C31.2746 104.751 34.3372 104.364 36.3447 103.426C38.0161 101.005 37.3205 98.7332 36.9657 96.48C38.9545 95.4958 39.5287 93.6811 39.6828 91.6846C40.1497 85.9142 43.4177 81.1934 45.4299 75.9967C45.8968 74.7372 47.0406 74.0562 48.5485 74.1308C50.4813 74.2101 52.4188 74.1308 54.5851 74.1308C54.8512 75.1897 56.0884 75.7915 56.2424 77.2003C53.5767 78.0259 50.6681 76.7338 47.9883 78.4038C44.0293 87.8314 39.6361 97.2544 36.0413 107.419C40.9153 108.123 45.1591 107.643 49.3702 107.573C52.3395 107.522 55.4394 107.923 58.2406 106.533L58.1986 106.57C60.2155 106.36 60.3228 104.485 60.9671 103.188C61.4853 102.101 61.7841 100.954 62.9373 100.361Z" fill="#D48EBD"/>
<path d="M58.2312 106.514H37.8526C36.9842 105.581 38.0766 104.588 38.5062 103.552C41.6622 95.9529 44.8555 88.3679 47.9648 80.7502C48.6138 79.1548 49.6549 78.3664 51.3216 78.4178C54.3702 78.4924 57.3441 78.0073 60.318 79.8452C62.9138 81.4499 66.1118 80.4843 69.3052 79.5187C68.6842 82.8773 66.9708 85.5083 66.0044 88.3818C63.0679 88.7317 60.3554 87.4769 57.4702 87.9573C55.6401 88.2606 54.9444 89.0862 54.711 90.7563C54.0807 95.3091 56.4151 98.971 60.8689 100.203C60.7756 102.656 59.0341 104.429 58.1891 106.565L58.2312 106.514Z" fill="#D48EBD"/>
<path d="M20.0792 56.7962C19.6964 53.3675 18.3005 50.0648 19.0335 46.4916C19.5003 44.2338 19.9112 42.0133 21.2744 40.0821C21.7413 39.4477 22.2081 38.9392 23.0065 38.8552C23.1138 39.4896 23.1745 40.1334 23.3426 40.7491C25.3781 48.2129 29.9394 54.0066 35.9106 58.5828C39.8742 61.6196 44.0947 64.4792 49.1368 65.6267C49.9492 67.9592 49.7764 70.3569 49.7951 72.9645C45.9995 72.6846 44.3515 75.171 43.0302 78.3058C34.7948 75.9174 29.1364 70.5248 24.1876 64.1573L22.4089 62.2914C22.2595 61.7223 22.8757 60.8919 21.8346 60.6307L21.872 60.682C21.7132 59.4971 21.5919 58.2889 20.1773 57.8598L20.0792 56.7962Z" fill="#90C2E9"/>
<path d="M54.1649 72.8573H51.2097C49.9305 65.5755 50.3973 50.4147 52.1808 44.4018C54.8559 44.3225 57.3163 45.5027 60.0241 46.0578C59.7206 51.4503 59.4312 56.5723 59.137 61.7969C54.9493 64.1247 53.7308 67.9639 54.1649 72.8573ZM55.5982 48.6468C55.8643 49.2205 56.2658 49.5797 56.9054 49.2812C57.0259 49.2489 57.1376 49.1899 57.232 49.1084C57.3263 49.0269 57.401 48.9251 57.4504 48.8106C57.4998 48.6962 57.5227 48.5721 57.5172 48.4475C57.5118 48.323 57.4782 48.2013 57.419 48.0916C56.644 47.5319 55.995 47.5412 55.5982 48.6468Z" fill="#90C2E9"/>
<path d="M67.6618 32.7302L70.9299 32.3057C71.2567 34.6661 70.2436 36.7233 70.0755 38.8877C69.9074 41.0522 69.2165 43.1794 68.7309 45.4185L65.2715 46.2489C65.5355 41.6646 66.3377 37.1273 67.6618 32.7302V32.7302Z" fill="#95C1E4"/>
<path d="M73.2782 83.6096C71.8122 84.6219 71.8776 86.4645 70.9439 87.9059L67.5544 88.3724C67.5544 84.4259 70.5704 81.3285 70.5377 77.4753L70.5004 77.5173L72.5265 76.8269L74.6928 78.4456C74.3846 80.3115 72.928 81.7483 73.2408 83.6749L73.2782 83.6096Z" fill="#D48EBD"/>
<path d="M86.4018 39.5549C85.1226 37.1805 83.4466 35.4872 80.524 35.9583C78.031 36.3595 77.3587 38.3327 76.9712 40.7911C76.4109 37.9922 77.7929 35.9257 80.3046 35.3286C83.4326 34.5869 85.8136 36.1123 86.4018 39.5549Z" fill="#95C1E4"/>
<path d="M104.021 45.0316C103.993 44.0986 102.971 43.7581 102.438 42.7925H106.482C106.874 43.8432 106.888 44.9974 106.524 46.0579C105.59 45.9366 104.997 44.9196 103.993 44.9943L104.021 45.0316Z" fill="#95C1E4"/>
<path d="M97.8587 34.3444C101.939 32.5204 104.301 33.7286 104.437 38.1975L102.177 34.4656C100.739 33.9478 99.2686 34.3583 97.8167 34.3304L97.8587 34.3444Z" fill="#484848"/>
<path d="M73.2456 83.6563L74.7349 82.4714V87.015C74.4998 87.2468 74.1992 87.4011 73.8736 87.457C73.5481 87.5129 73.2132 87.4677 72.9141 87.3275C72.0037 85.8768 73.8478 84.8832 73.2783 83.5957L73.2456 83.6563Z" fill="#D48EBD"/>
<path d="M97.8167 34.3022C97.8167 36.0236 95.6178 36.6953 95.7765 38.5006C95.2443 36.5227 96.3228 35.3285 97.8587 34.3536L97.8167 34.3022Z" fill="#484848"/>
<path d="M85.8135 14.6728L85.0059 14.3416L85.8135 14.6728Z" fill="#C5C6C8"/>
<path d="M113.331 91.2786C113.391 90.7655 113.172 90.1684 113.797 89.7859C114.554 90.4343 114.194 91.0081 113.69 91.5772L113.331 91.2786Z" fill="#484848"/>
<path d="M35.8592 84.2162C34.2578 84.3655 32.9646 83.246 31.3493 83.232C27.2782 83.1946 24.4117 85.6717 23.8001 90.0006C23.2538 93.8211 25.3361 96.9372 29.1083 97.9309L30.0654 97.4131L30.5322 97.8002C30.2708 98.5513 30.014 99.3023 29.7572 100.044L30.5603 103.16C27.9038 102.838 29.1597 100.394 28.296 98.9991C24.7618 97.5997 23.1231 94.7261 22.5956 91.0689C23.0624 89.9913 23.1185 88.9977 22.096 88.1534C21.1623 87.3743 20.6954 86.2501 20.1445 85.2099C21.4938 85.2099 21.9746 86.7306 23.4126 87.0758C25.252 83.7638 28.0812 81.8512 32.0355 82.2197C33.4455 82.3223 35.2102 82.3037 35.8592 84.2162Z" fill="#484848"/>
<path d="M38.6183 87.5468C37.3127 86.7893 36.3196 85.592 35.8171 84.1694C37.8947 84.3327 38.3709 85.8441 38.6183 87.5468Z" fill="#484848"/>
<path d="M17.9549 81.6784L16.9278 80.4749L16.5356 78.7908L16.8998 78.5156C17.3283 78.9112 17.6497 79.4085 17.8342 79.9615C18.0187 80.5145 18.0602 81.1051 17.9549 81.6784Z" fill="#484848"/>
<path d="M16.5357 78.791L16.9279 80.475C16.7506 79.9273 16.8166 81.0397 16.9279 80.475C16.5357 82.4655 17.8003 87.6958 22.5676 91.0688C23.0952 94.7354 24.7338 97.5996 28.268 98.999C29.1224 100.398 27.8758 102.838 30.5323 103.16V103.127C30.7564 103.729 31.536 103.99 31.5034 104.919L30.2568 108.095C25.0093 109.364 21.3864 106.337 18.6693 102.824C12.5394 94.9453 12.2126 85.7136 13.8372 76.2859C13.9303 76.0282 14.0592 75.7848 14.2201 75.5629C14.4208 75.1757 14.6076 74.7839 14.8597 74.2754C15.4526 75.8661 15.9942 77.3262 16.5357 78.791Z" fill="#90C2E9"/>
<path d="M81.7378 111.156L82.228 111.347C82.0474 111.341 81.8743 111.274 81.7378 111.156V111.156Z" fill="#C5C6C8"/>
<path d="M83.7361 53.0271C91.1452 56.6424 98.6757 56.815 106.748 54.0347C106.278 54.6515 105.691 55.1694 105.021 55.5585C104.35 55.9476 103.609 56.2002 102.84 56.3018C96.6775 57.1975 90.5663 57.0155 84.7305 54.5152C83.3299 53.9134 81.8779 53.1157 82.863 50.9792C83.8481 51.3711 83.0124 52.3927 83.7361 53.0271Z" fill="#484848"/>
<path d="M87.6809 44.7468L88.4653 45.8197C88.1105 46.2442 87.8163 46.832 87.0647 46.8553C86.7472 45.9877 88.2458 45.6611 87.6809 44.7468Z" fill="#484848"/>
<path d="M64.9354 100.944C64.1557 101.131 63.4321 101.108 62.9092 100.371C63.7075 100.137 64.4778 99.988 64.9354 100.944Z" fill="#484848"/>
<path d="M20.9196 60.5001C20.9839 60.2781 20.979 60.0418 20.9056 59.8227C20.8322 59.6035 20.6938 59.4119 20.5087 59.2732L20.1726 57.8738C21.5732 58.3029 21.7086 59.5111 21.8673 60.696L20.9196 60.5001Z" fill="#484848"/>
<path d="M22.4088 62.2913C21.9186 61.8248 21.6012 61.3303 21.8346 60.6306C22.8757 60.8918 22.2594 61.7362 22.4088 62.2913Z" fill="#484848"/>
<path d="M55.5981 48.6467C55.995 47.5411 56.6439 47.5318 57.4189 48.0915C57.4781 48.2012 57.5117 48.3229 57.5172 48.4474C57.5226 48.572 57.4998 48.6961 57.4504 48.8105C57.401 48.925 57.3263 49.0268 57.2319 49.1083C57.1375 49.1897 57.0259 49.2488 56.9054 49.2811C56.2658 49.5749 55.8643 49.2298 55.5981 48.6467Z" fill="#484848"/>
<path d="M35.4669 89.0115C34.8226 88.2605 34.1783 87.5095 33.1699 86.3433C35.2195 86.4552 35.7097 87.3555 35.9711 88.5124L35.4669 89.0115Z" fill="#484848"/>
<path d="M35.9666 88.5125C36.7649 89.5574 37.2084 90.6256 35.9899 91.9831L35.467 89.0116L35.9666 88.5125Z" fill="#484848"/>
<path d="M30.2568 85.5455C31.3166 85.0044 31.9235 85.079 32.5305 85.6248C31.7088 86.7724 31.2139 85.8207 30.2568 85.5455Z" fill="#484848"/>
<path d="M76.6163 70.6367C77.284 70.786 78.241 70.4268 78.3204 71.607C77.7041 71.3691 76.3969 72.3487 76.6163 70.6367Z" fill="#484848"/>
<path d="M76.8527 39.9746C76.78 38.5219 77.9858 35.1807 81.6466 35.1807C85.3074 35.1807 86.0773 37.9408 86.2226 39.103" stroke="#90C2E9" stroke-width="1.08953" stroke-linecap="round"/>
<path d="M95.7045 38.1223C95.6318 36.6696 96.8376 33.3284 100.498 33.3284C104.159 33.3284 104.929 36.0885 105.074 37.2507" stroke="#90C2E9" stroke-width="1.08953" stroke-linecap="round"/>
<path d="M49.8064 62.4063C43.1603 59.1014 28.6042 49.7024 23.5488 38.5457" stroke="#484848" stroke-width="1.30743"/>
<path d="M42.8335 78.9671C30.7398 73.1926 23.1131 67.4181 18.9729 54.3438" stroke="#484848" stroke-width="1.30743"/>
<path d="M96.1115 73.6283L95.6397 73.1758L95.5966 73.2208L95.5628 73.273L96.1115 73.6283ZM111.365 68.5075L111.593 67.8947L111.365 68.5075ZM106.333 107.074C106.151 107.386 106.256 107.786 106.568 107.968C106.88 108.15 107.28 108.045 107.462 107.733L106.333 107.074ZM56.58 89.3112C61.1966 89.9575 68.7061 89.9669 76.306 87.9083C83.9095 85.8488 91.664 81.701 96.6603 73.9835L95.5628 73.273C90.7969 80.6346 83.3707 84.6402 75.9641 86.6464C68.554 88.6535 61.2241 88.6411 56.7613 88.0164L56.58 89.3112ZM96.5834 74.0807C97.8059 72.8058 100.027 71.0124 102.672 69.8198C105.319 68.6265 108.308 68.0696 111.137 69.1203L111.593 67.8947C108.32 66.6792 104.954 67.3571 102.135 68.6279C99.3143 69.8995 96.9594 71.7996 95.6397 73.1758L96.5834 74.0807ZM111.137 69.1203C112.749 69.7189 113.878 71.3161 114.474 73.8319C115.068 76.3382 115.097 79.6249 114.612 83.3357C113.643 90.7508 110.649 99.6836 106.333 107.074L107.462 107.733C111.863 100.197 114.916 91.0983 115.908 83.5051C116.404 79.7118 116.391 76.2502 115.746 73.5302C115.103 70.8197 113.794 68.7125 111.593 67.8947L111.137 69.1203Z" fill="#484848"/>
<path d="M18.973 53.2542C15.1596 58.8471 10.3221 74.4346 23.2221 88.119" stroke="#484848" stroke-width="1.30743"/>
<path d="M14.9418 71.9941C10.6926 81.7999 10.1479 106.924 30.631 108.929" stroke="#484848" stroke-width="1.30743"/>
<path d="M55.7988 95.6367C63.0987 103.263 82.5794 106.488 95.5666 93.6755" stroke="#484848" stroke-width="1.30743" stroke-linecap="round"/>
<path d="M69.3091 108.384C76.391 110.672 85.4341 117.427 100.143 102.392" stroke="#484848" stroke-width="1.30743" stroke-linecap="round"/>
<path d="M104.392 28.0862C98.8352 20.06 81.2285 5.68551 55.2542 12.397" stroke="#484848" stroke-width="1.30743" stroke-linecap="round"/>
<path d="M96.8741 41.5963C103.063 42.5551 108.024 49.114 109.731 52.2736C109.731 55.3243 107.769 57.0676 104.174 58.8108C95.1308 61.7526 88.739 59.4645 84.4535 58.1571C82.456 57.6487 78.7444 55.4986 79.8775 50.9662C81.2939 45.3007 89.1385 40.3978 96.8741 41.5963Z" stroke="#484848" stroke-width="1.30743" stroke-linecap="round"/>
<path d="M102.649 112.416C96.874 116.229 84.7367 121.611 82.3833 112.633" stroke="#484848" stroke-width="1.30743" stroke-linecap="round"/>
<circle cx="64.0795" cy="70.1417" r="10.0236" fill="white" stroke="#484848" stroke-width="1.30743"/>
<circle cx="76.4999" cy="73.4105" r="4.35811" fill="white" stroke="#484848" stroke-width="1.30743"/>
<circle cx="31.2846" cy="90.5161" r="8.17145" fill="white" stroke="#484848" stroke-width="1.30743"/>
<circle cx="33.1367" cy="99.7771" r="4.1402" fill="white" stroke="#484848" stroke-width="1.30743"/>
<path d="M76.5905 70.6243C77.2581 70.7735 78.2152 70.4143 78.2945 71.5945C77.6783 71.3566 76.371 72.3363 76.5905 70.6243Z" fill="#484848"/>
<path d="M33.9083 87.192C33.264 86.4409 32.6198 85.6899 31.6113 84.5237C33.6609 84.6356 34.1511 85.5359 34.4125 86.6928L33.9083 87.192Z" fill="#484848"/>
<path d="M34.408 86.6929C35.2063 87.7378 35.6498 88.806 34.4313 90.1635L33.9084 87.192L34.408 86.6929Z" fill="#484848"/>
<path d="M68.0726 65.6081C66.3172 64.6751 64.5945 63.9614 62.1575 64.8244C64.4965 62.7579 66.5693 63.1031 68.0726 65.6081Z" fill="#484848"/>
</g>
<defs>
<clipPath id="clip0_112_97">
<rect width="104.377" height="109.824" fill="white" transform="translate(12 10)"/>
</clipPath>
</defs>
</svg>
